<?xml version="1.0" encoding="UTF-8" standalone="no"?>
<!-- Generator: Adobe Illustrator 19.0.0, SVG Export Plug-In . SVG Version: 6.00 Build 0)  -->

<svg
   version="1.1"
   id="Layer_1"
   x="0px"
   y="0px"
   viewBox="0 0 64 64"
   xml:space="preserve"
   sodipodi:docname="recipe.svg"
   inkscape:version="1.1 (c4e8f9ed74, 2021-05-24)"
   width="64"
   height="64"
   xmlns:inkscape="http://www.inkscape.org/namespaces/inkscape"
   xmlns:sodipodi="http://sodipodi.sourceforge.net/DTD/sodipodi-0.dtd"
   xmlns="http://www.w3.org/2000/svg"
   xmlns:svg="http://www.w3.org/2000/svg"><defs
   id="defs53" /><sodipodi:namedview
   id="namedview51"
   pagecolor="#ffffff"
   bordercolor="#666666"
   borderopacity="1.0"
   inkscape:pageshadow="2"
   inkscape:pageopacity="0.0"
   inkscape:pagecheckerboard="0"
   showgrid="false"
   inkscape:zoom="2.2910156"
   inkscape:cx="-20.733163"
   inkscape:cy="83.587383"
   inkscape:window-width="2560"
   inkscape:window-height="1375"
   inkscape:window-x="0"
   inkscape:window-y="0"
   inkscape:window-maximized="1"
   inkscape:current-layer="g18"
   width="64px" />
<g
   id="g18"
   transform="matrix(0.125,0,0,0.13271813,0,12.911225)">
	<g
   id="g16"
   transform="translate(0,-110.50488)">
		<path
   d="m 499.5,30.516 h -7.386 v -2.567 c 0,-6.892 -5.607,-12.5 -12.5,-12.5 h -38.911 c -6.893,0 -12.5,5.608 -12.5,12.5 v 107.495 c 0,3.731 1.652,7.076 4.253,9.369 v 241.842 c 0,0.066 0.009,0.131 0.01,0.197 10e-4,0.067 -0.005,0.135 -0.003,0.202 0.736,21.012 5.168,38.923 12.161,49.141 1.838,2.683 4.811,4.324 8.035,4.497 v 10.488 c 0,4.143 3.357,7.5 7.5,7.5 4.143,0 7.5,-3.357 7.5,-7.5 v -10.488 c 3.222,-0.173 6.197,-1.814 8.036,-4.498 6.991,-10.215 11.423,-28.126 12.159,-49.144 0.002,-0.065 -0.004,-0.131 -0.003,-0.196 0.002,-0.066 0.01,-0.132 0.01,-0.199 V 144.813 c 2.601,-2.293 4.253,-5.638 4.253,-9.369 V 103 c 0,-4.143 -3.357,-7.5 -7.5,-7.5 -4.143,0 -7.5,3.357 -7.5,7.5 v 29.943 H 443.203 V 30.448 h 33.911 V 73 c 0,4.143 3.357,7.5 7.5,7.5 4.143,0 7.5,-3.357 7.5,-7.5 V 45.516 H 497 V 145.63 c 0,4.143 3.357,7.5 7.5,7.5 4.143,0 7.5,-3.357 7.5,-7.5 V 43.016 c 0,-6.893 -5.607,-12.5 -12.5,-12.5 z m -34.952,395.21 h -8.776 c -4.151,-7.428 -7.116,-20.086 -8.077,-34.455 h 24.929 c -0.962,14.37 -3.926,27.03 -8.076,34.455 z M 447.456,147.943 h 25.405 V 376.27 h -25.405 z"
   id="path2" />
		<path
   d="M 402.556,14.887 H 21.184 C 9.503,14.887 0,24.302 0,35.875 v 398.021 c 0,11.573 9.503,20.988 21.184,20.988 h 8.688 v 28.689 c 0,4.908 2.729,9.364 7.122,11.631 1.878,0.969 3.992,1.48 6.112,1.48 2.657,0 5.223,-0.779 7.412,-2.249 l 17.369,-11.636 19.797,12.309 c 2.109,1.311 4.542,2.004 7.035,2.004 2.199,0 4.383,-0.55 6.306,-1.586 4.272,-2.294 6.927,-6.71 6.927,-11.524 v -29.118 h 288.165 c 7.907,0 14.341,-6.39 14.341,-14.244 V 249.676 c 2.805,-2.294 4.599,-5.778 4.599,-9.676 V 27.387 c -0.001,-6.893 -5.609,-12.5 -12.501,-12.5 z M 92.951,480.722 71.695,467.506 c -1.214,-0.755 -2.587,-1.131 -3.96,-1.131 -1.457,0 -2.913,0.424 -4.174,1.269 l -18.69,12.521 v -25.279 h 48.08 z M 342.039,439.885 H 67.09 V 372 c 0,-4.143 -3.357,-7.5 -7.5,-7.5 -4.143,0 -7.5,3.357 -7.5,7.5 v 67.885 H 21.184 C 17.775,439.885 15,437.198 15,433.897 V 35.875 c 0,-3.302 2.774,-5.988 6.184,-5.988 H 52.09 V 343 c 0,4.143 3.357,7.5 7.5,7.5 4.143,0 7.5,-3.357 7.5,-7.5 V 29.887 h 274.949 z m 53.418,0 H 384.509 V 295 c 0,-4.143 -3.357,-7.5 -7.5,-7.5 -4.143,0 -7.5,3.357 -7.5,7.5 v 144.885 h -12.47 V 252.5 h 12.47 V 263 c 0,4.143 3.357,7.5 7.5,7.5 4.143,0 7.5,-3.357 7.5,-7.5 v -10.5 h 10.948 z M 400.056,237.5 h -43.017 v -55 h 43.017 z m 0,-70 h -43.017 v -58.821 h 43.017 z m 0,-73.821 H 357.039 V 29.887 h 43.017 z"
   id="path4" />
		<path
   d="m 264.721,121.777 c -10.462,0 -20.349,3.677 -28.161,10.417 -7.808,-6.739 -17.695,-10.417 -28.159,-10.417 -10.463,0 -20.351,3.678 -28.161,10.417 -7.808,-6.738 -17.696,-10.417 -28.16,-10.417 -23.645,0 -42.88,19.009 -42.88,42.374 0,21.91 17.221,40.224 38.99,42.189 v 63.86 c 0,4.143 3.357,7.5 7.5,7.5 h 105.42 c 4.143,0 7.5,-3.357 7.5,-7.5 v -63.86 c 21.767,-1.964 38.99,-20.278 38.99,-42.189 0,-23.365 -19.236,-42.374 -42.879,-42.374 z m 0.517,69.734 c -6.412,0.108 -11.629,5.389 -11.629,11.771 v 59.42 H 232.988 V 227.78 c 0,-4.143 -3.357,-7.5 -7.5,-7.5 -4.143,0 -7.5,3.357 -7.5,7.5 v 34.922 H 198.81 V 227.78 c 0,-4.143 -3.357,-7.5 -7.5,-7.5 -4.143,0 -7.5,3.357 -7.5,7.5 v 34.922 h -20.621 v -59.42 c 0,-6.382 -5.216,-11.662 -11.623,-11.771 -15.09,-0.266 -27.367,-12.539 -27.367,-27.359 0,-15.094 12.507,-27.374 27.88,-27.374 7.495,0 14.53,2.882 19.802,8.107 2.231,2.219 5.2,3.44 8.358,3.44 3.155,0 6.123,-1.221 8.352,-3.434 5.278,-5.231 12.313,-8.113 19.81,-8.113 7.495,0 14.529,2.882 19.801,8.107 2.231,2.219 5.2,3.44 8.358,3.44 3.158,0 6.127,-1.222 8.352,-3.434 5.278,-5.231 12.313,-8.113 19.81,-8.113 15.372,0 27.879,12.28 27.879,27.374 -10e-4,14.82 -12.278,27.093 -27.363,27.359 z"
   id="path6" />
		<path
   d="m 270.353,333.964 c 0,-4.143 -3.357,-7.5 -7.5,-7.5 H 153.947 c -4.143,0 -7.5,3.357 -7.5,7.5 0,4.143 3.357,7.5 7.5,7.5 h 108.905 c 4.143,0 7.501,-3.358 7.501,-7.5 z"
   id="path8" />
		<path
   d="m 171.91,360.502 c -4.143,0 -7.5,3.357 -7.5,7.5 0,4.142 3.357,7.5 7.5,7.5 h 72.979 c 4.143,0 7.5,-3.358 7.5,-7.5 0,-4.143 -3.357,-7.5 -7.5,-7.5 z"
   id="path10" />
		<path
   d="m 460.159,235.656 c -4.143,0 -7.5,3.357 -7.5,7.5 v 70.622 c 0,4.143 3.357,7.5 7.5,7.5 4.143,0 7.5,-3.357 7.5,-7.5 v -70.622 c 0,-4.142 -3.357,-7.5 -7.5,-7.5 z"
   id="path12" />
		<path
   d="m 460.159,200.69 c -4.143,0 -7.5,3.357 -7.5,7.5 v 7.581 c 0,4.143 3.357,7.5 7.5,7.5 4.143,0 7.5,-3.357 7.5,-7.5 v -7.581 c 0,-4.142 -3.357,-7.5 -7.5,-7.5 z"
   id="path14" />
	</g>
</g>
<g
   id="g20"
   transform="matrix(0.125,0,0,0.13271813,0,12.911225)">
</g>
<g
   id="g22"
   transform="matrix(0.125,0,0,0.13271813,0,12.911225)">
</g>
<g
   id="g24"
   transform="matrix(0.125,0,0,0.13271813,0,12.911225)">
</g>
<g
   id="g26"
   transform="matrix(0.125,0,0,0.13271813,0,12.911225)">
</g>
<g
   id="g28"
   transform="matrix(0.125,0,0,0.13271813,0,12.911225)">
</g>
<g
   id="g30"
   transform="matrix(0.125,0,0,0.13271813,0,12.911225)">
</g>
<g
   id="g32"
   transform="matrix(0.125,0,0,0.13271813,0,12.911225)">
</g>
<g
   id="g34"
   transform="matrix(0.125,0,0,0.13271813,0,12.911225)">
</g>
<g
   id="g36"
   transform="matrix(0.125,0,0,0.13271813,0,12.911225)">
</g>
<g
   id="g38"
   transform="matrix(0.125,0,0,0.13271813,0,12.911225)">
</g>
<g
   id="g40"
   transform="matrix(0.125,0,0,0.13271813,0,12.911225)">
</g>
<g
   id="g42"
   transform="matrix(0.125,0,0,0.13271813,0,12.911225)">
</g>
<g
   id="g44"
   transform="matrix(0.125,0,0,0.13271813,0,12.911225)">
</g>
<g
   id="g46"
   transform="matrix(0.125,0,0,0.13271813,0,12.911225)">
</g>
<g
   id="g48"
   transform="matrix(0.125,0,0,0.13271813,0,12.911225)">
</g>
</svg>
